<svg width="362" height="157" viewBox="0 0 362 157" fill="none" xmlns="http://www.w3.org/2000/svg">
<path d="M4.1 52.108H33.2V62.108H15.1V81.608H29.3V91.608H15.1V122.108H4.1V52.108ZM38.475 52.108H49.475V122.108H38.475V52.108ZM66.3133 62.108H54.8133V52.108H88.8133V62.108H77.3133V122.108H66.3133V62.108Z" fill="#EBB491"/>
<path d="M172.143 51.7124H188.443C194.11 51.7124 198.243 53.0458 200.843 55.7124C203.443 58.3124 204.743 62.3458 204.743 67.8124V72.1124C204.743 79.3791 202.343 83.9791 197.543 85.9124V86.1124C200.21 86.9124 202.077 88.5458 203.143 91.0124C204.277 93.4791 204.843 96.7791 204.843 100.912V113.212C204.843 115.212 204.91 116.846 205.043 118.112C205.177 119.312 205.51 120.512 206.043 121.712H194.843C194.443 120.579 194.177 119.512 194.043 118.512C193.91 117.512 193.843 115.712 193.843 113.112V100.312C193.843 97.1124 193.31 94.8791 192.243 93.6124C191.243 92.3458 189.477 91.7124 186.943 91.7124H183.143V121.712H172.143V51.7124ZM187.143 81.7124C189.343 81.7124 190.977 81.1458 192.043 80.0124C193.177 78.8791 193.743 76.9791 193.743 74.3124V68.9124C193.743 66.3791 193.277 64.5458 192.343 63.4124C191.477 62.2791 190.077 61.7124 188.143 61.7124H183.143V81.7124H187.143ZM220.975 51.7124H235.875L247.275 121.712H236.275L234.275 107.812V108.012H221.775L219.775 121.712H209.575L220.975 51.7124ZM232.975 98.5124L228.075 63.9124H227.875L223.075 98.5124H232.975ZM267.917 122.712C262.65 122.712 258.617 121.212 255.817 118.212C253.083 115.212 251.717 110.979 251.717 105.512V67.9124C251.717 62.4458 253.083 58.2124 255.817 55.2124C258.617 52.2124 262.65 50.7124 267.917 50.7124C273.183 50.7124 277.183 52.2124 279.917 55.2124C282.717 58.2124 284.117 62.4458 284.117 67.9124V75.3124H273.717V67.2124C273.717 62.8791 271.883 60.7124 268.217 60.7124C264.55 60.7124 262.717 62.8791 262.717 67.2124V106.312C262.717 110.579 264.55 112.712 268.217 112.712C271.883 112.712 273.717 110.579 273.717 106.312V95.6124H284.117V105.512C284.117 110.979 282.717 115.212 279.917 118.212C277.183 121.212 273.183 122.712 267.917 122.712ZM290.698 51.7124H301.698V81.2124L315.698 51.7124H326.698L313.598 77.4124L326.898 121.712H315.398L306.098 90.5124L301.698 99.4124V121.712H290.698V51.7124Z" fill="#EBB491"/>
<path d="M166 39.8297C166 66.3326 150.106 87.8173 130.5 87.8173C110.894 87.8173 95 66.3326 95 39.8297C95 13.3269 110.894 0 130.5 0C150.106 0 166 13.3269 166 39.8297Z" fill="#E66F3C"/>
<path d="M130.5 155L163.327 58.065V47.0279H97.6529V58.065L130.5 155Z" fill="#E66F3C"/>
<path d="M4.83578 34.1527C4.83578 30.2376 7.67097 27.0639 11.1684 27.0639C11.1684 27.0639 112.273 27.0639 115.771 27.0639C119.268 27.0639 122.103 30.2376 122.103 34.1527C122.103 38.0677 119.268 41.2415 115.771 41.2415C112.273 41.2415 11.1684 41.2415 11.1684 41.2415C7.67097 41.2415 4.83578 38.0677 4.83578 34.1527Z" fill="#E66F3C"/>
<path d="M30.1661 13.8314C30.1661 10.6994 32.4342 8.16037 35.2321 8.16037C38.03 8.16037 40.2982 10.6994 40.2982 13.8314V34.1527V54.4739C40.2982 57.606 38.03 60.145 35.2321 60.145C32.4342 60.145 30.1661 57.606 30.1661 54.4739V13.8314Z" fill="#E66F3C"/>
<path d="M21.7226 16.6669C21.7226 14.0569 23.6128 11.9411 25.9443 11.9411C28.2759 11.9411 30.1661 14.0569 30.1661 16.6669V51.6384C30.1661 54.2484 28.2759 56.3643 25.9443 56.3643C23.6128 56.3643 21.7226 54.2484 21.7226 51.6384V16.6669Z" fill="#E66F3C"/>
<path d="M14.1235 20.9202C14.1235 18.5712 15.8247 16.6669 17.9231 16.6669C20.0215 16.6669 21.7226 18.5712 21.7226 20.9202V48.3303C21.7226 50.6793 20.0215 52.5836 17.9231 52.5836C15.8247 52.5836 14.1235 50.6793 14.1235 48.3303V20.9202Z" fill="#E66F3C"/>
<path d="M328 34.1527C328 30.2376 325.165 27.0639 321.667 27.0639H132.439C128.941 27.0639 126.106 30.2376 126.106 34.1527C126.106 38.0677 128.941 41.2415 132.439 41.2415H321.667C325.165 41.2415 328 38.0677 328 34.1527Z" fill="#E66F3C"/>
<path d="M301.144 13.8314C301.144 10.6994 298.876 8.16037 296.078 8.16037C293.28 8.16037 291.012 10.6994 291.012 13.8314V54.4739C291.012 57.606 293.28 60.145 296.078 60.145C298.876 60.145 301.144 57.606 301.144 54.4739V13.8314Z" fill="#E66F3C"/>
<path d="M309.588 16.6669C309.588 14.0569 307.697 11.9411 305.366 11.9411C303.034 11.9411 301.144 14.0569 301.144 16.6669V51.6384C301.144 54.2484 303.034 56.3643 305.366 56.3643C307.697 56.3643 309.588 54.2484 309.588 51.6384V16.6669Z" fill="#E66F3C"/>
<path d="M317.187 20.9202C317.187 18.5712 315.486 16.6669 313.387 16.6669C311.289 16.6669 309.588 18.5712 309.588 20.9202V48.3303C309.588 50.6793 311.289 52.5836 313.387 52.5836C315.486 52.5836 317.187 50.6793 317.187 48.3303V20.9202Z" fill="#E66F3C"/>
<ellipse cx="130.447" cy="35.7348" rx="18.1342" ry="18.7386" fill="#EBB491"/>
</svg>
